<svg xmlns="http://www.w3.org/2000/svg" xmlns:xlink="http://www.w3.org/1999/xlink" id="Layer_1" width="57.669" height="66.75" x="0" y="0" enable-background="new -1.542 -2.75 57.669 66.75" version="1.1" viewBox="-1.542 -2.75 57.669 66.75" xml:space="preserve"><line x1="9.621" x2="23.137" y1="11.685" y2="25.202" fill="none" stroke="#646464" stroke-miterlimit="10" stroke-width="3"/><line x1="22.068" x2="28.293" y1="24.764" y2="24.764" fill="none" stroke="#646464" stroke-miterlimit="10" stroke-width="3"/><line x1="28.463" x2="28.463" y1="9.377" y2="24.795" fill="none" stroke="#646464" stroke-miterlimit="10" stroke-width="3"/><line x1="36.467" x2="44.607" y1="32.91" y2="24.607" fill="none" stroke="#646464" stroke-miterlimit="10" stroke-width="3"/><line x1="36.467" x2="36.467" y1="32.908" y2="45.634" fill="none" stroke="#646464" stroke-miterlimit="10" stroke-width="3"/><line x1="28.322" x2="36.467" y1="24.764" y2="32.908" fill="none" stroke="#646464" stroke-miterlimit="10" stroke-width="3"/><line x1="36.025" x2="43.625" y1="44.592" y2="52.193" fill="none" stroke="#646464" stroke-miterlimit="10" stroke-width="3"/><line x1="22.172" x2="22.172" y1="35.417" y2="42.312" fill="none" stroke="#646464" stroke-miterlimit="10" stroke-width="3"/><line x1="22.086" x2="29.596" y1="42.084" y2="49.592" fill="none" stroke="#646464" stroke-miterlimit="10" stroke-width="3"/><line x1="15.747" x2="22.579" y1="29.646" y2="36.479" fill="none" stroke="#646464" stroke-miterlimit="10" stroke-width="3"/><line x1="10.208" x2="22.042" y1="42.259" y2="42.259" fill="none" stroke="#646464" stroke-miterlimit="10" stroke-width="3"/><g><path fill="none" stroke="#646464" stroke-miterlimit="10" stroke-width="2" d="M55.127,60.859c0,1.178-0.963,2.141-2.141,2.141 H1.599c-1.178,0-2.141-0.963-2.141-2.141V0.391c0-1.177,0.963-2.141,2.141-2.141h51.387c1.178,0,2.141,0.963,2.141,2.141V60.859z"/></g><circle cx="7.538" cy="42.259" r="3.083" fill="none" stroke="#646464" stroke-miterlimit="10" stroke-width="3"/><circle cx="14.092" cy="28.285" r="3.083" fill="none" stroke="#646464" stroke-miterlimit="10" stroke-width="3"/><circle cx="30.861" cy="50.954" r="3.083" fill="none" stroke="#646464" stroke-miterlimit="10" stroke-width="3"/><circle cx="46.038" cy="54.037" r="3.084" fill="none" stroke="#646464" stroke-miterlimit="10" stroke-width="3"/><circle cx="46.709" cy="22.581" r="3.083" fill="none" stroke="#646464" stroke-miterlimit="10" stroke-width="3"/><circle cx="28.464" cy="6.293" r="3.083" fill="none" stroke="#646464" stroke-miterlimit="10" stroke-width="3"/><circle cx="8.562" cy="10.054" r="3.083" fill="none" stroke="#646464" stroke-miterlimit="10" stroke-width="3"/></svg>